<?xml version="1.0" encoding="utf-8"?>
<!-- Generator: Adobe Illustrator 16.0.0, SVG Export Plug-In . SVG Version: 6.00 Build 0)  -->
<!DOCTYPE svg PUBLIC "-//W3C//DTD SVG 1.1//EN" "http://www.w3.org/Graphics/SVG/1.1/DTD/svg11.dtd">
<svg version="1.1" id="Layer_2" xmlns="http://www.w3.org/2000/svg" xmlns:xlink="http://www.w3.org/1999/xlink" x="0px" y="0px"
	 width="1366px" height="768px" viewBox="0 0 1366 768" enable-background="new 0 0 1366 768" xml:space="preserve">
<title>D</title>
<polygon fill="#161925" points="137.523,369.001 72.523,112.001 87.523,369.001 "/>
<polygon fill="#EFF6EE" points="72.523,605.001 87.523,369.001 137.523,369.001 "/>
<polygon fill="#BA1F33" points="137.523,369.001 159.523,605.001 72.523,605.001 "/>
<polygon fill="#1446A0" points="137.523,369.001 159.523,112.001 72.523,112.001 "/>
<polygon fill="#BA1F33" points="155.123,163.451 159.523,112.001 229.523,112.001 "/>
<polygon fill="#F5D547" points="155.523,163.001 372.523,241.001 229.523,112.001 "/>
<polygon fill="#EFF6EE" points="372.523,241.001 300.933,215.271 402.523,369.001 "/>
<polyline fill="#161925" points="229.523,112.001 328.523,147.001 372.523,241.001 "/>
<polyline fill="#1446A0" points="300.523,215.001 344.523,369.001 402.523,369.001 "/>
<polygon fill="#F5D547" points="155.123,557.961 159.523,605.001 229.523,605.001 "/>
<polygon fill="#1446A0" points="155.523,558.371 372.523,487.041 229.523,605.001 "/>
<polygon fill="#161925" points="372.523,487.041 300.933,510.571 402.523,370.001 "/>
<polyline fill="#BA1F33" points="229.523,605.001 328.523,573.001 372.523,487.041 "/>
<polyline fill="#F5D547" points="300.523,510.821 344.523,369.001 402.523,370.001 "/>

<polygon fill="#EFF6EE" points="607.577,481.023 716.893,347.499 646.127,520.268 "/>
<polygon fill="#BA1F33" points="707.386,204.354 733.437,131.904 799.99,131.904 "/>
<polygon fill="#EFF6EE" points="799.99,131.904 707.386,204.354 759.678,228.801 "/>
<polyline fill="#1446A0" points="664.302,336.751 607.577,481.023 715.96,347.499 "/>
<polygon fill="#161925" points="759.678,228.801 715.96,347.499 707.386,204.354 "/>
<polyline fill="#BA1F33" points="607.577,604.083 646.127,520.268 607.577,481.023 "/>
<polyline fill="#F5D547" points="664.302,336.751 707.386,206.743 715.96,347.499 "/>
<line fill="#EFF6EE" x1="607.577" y1="481.023" x2="607.577" y2="604.083"/>
<path fill="#BA1F33" d="M445.441,131.904"/>
<path fill="#BA1F33" d="M445.441,131.904"/>
<path fill="#EFF6EE" d="M445.441,131.904"/>
<path fill="#1446A0" d="M626.853,453.025"/>
<polygon fill="#161925" points="569.026,520.268 498.262,347.499 607.577,481.023 "/>
<polyline fill="#161925" points="415.164,131.904 481.717,131.904 507.769,204.354 415.164,131.904 "/>
<polyline fill="#F5D547" points="455.477,228.801 507.769,204.354 415.164,131.904 "/>
<polyline fill="#F5D547" points="499.194,347.499 607.577,481.023 550.851,336.751 "/>
<polyline fill="#BA1F33" points="455.477,228.801 507.769,204.354 499.194,347.499 455.477,228.801 "/>
<polyline fill="#1446A0" points="607.577,481.023 569.026,520.268 607.577,604.083 "/>
<polyline fill="#1446A0" points="499.194,347.499 507.769,206.743 550.851,336.751 "/>
<line fill="#EFF6EE" x1="607.577" y1="604.083" x2="607.577" y2="481.023"/>
<path fill="#1446A0" d="M588.302,453.025"/>

<polygon fill="#161925" points="1028.167,292.001 984,232.5 1028.167,362.911 "/>
<polygon fill="#BA1F33" points="865.5,354.893 920.5,553.5 865.5,608.286 "/>
<polygon fill="#EFF6EE" points="920.5,269.5 865.5,125.405 984,232.5 "/>
<polyline fill="#1446A0" points="865.5,125.405 865.5,354.893 920.5,269.5 "/>
<polygon fill="#F5D547" points="920.5,269.5 865.5,354.893 919.923,399.5 "/>
<polygon fill="#161925" points="920.5,553.5 865.5,354.893 920.5,399.5 "/>
<polyline fill="#BA1F33" points="920.5,269.5 984,232.5 1028.167,362.911 "/>
<polyline fill="#F5D547" points="1027.835,362.911 1072.002,232.5 1027.835,292.001 "/>
<polygon fill="#1446A0" points="1190.502,608.286 1135.502,553.5 1190.502,354.893 "/>
<polygon fill="#BA1F33" points="1072.002,232.5 1190.502,125.405 1135.502,269.5 "/>
<polyline fill="#EFF6EE" points="1135.502,269.5 1190.502,354.893 1190.502,125.405 "/>
<polygon fill="#161925" points="1136.079,399.5 1190.502,354.893 1135.502,269.5 "/>
<polygon fill="#F5D547" points="1135.502,399.5 1190.502,354.893 1135.502,553.5 "/>
<polyline fill="#1446A0" points="1027.835,362.911 1072.002,232.5 1135.502,269.5 "/>
</svg>
